# xmcd
#
# Track frame offsets: 
#        150
#        17116
#        34811
#        52231
#        69026
#        90909
#        107753
#        125618
#        139979
#        160648
#        179610
#        205594
#        224859
#        243390
#        267632
#        285922
#
# Disc length: 4052 seconds
#
# Revision: 0
# Processed by: cddbd v1.5.2PL0 Copyright (c) Steve Scherf et al.
# Submitted via: ExactAudioCopyFreeDBPlugin 1.0
#
DISCID=ed0fd210
DTITLE=Diane Birch - Speak a Little Louder
DYEAR=2013
DGENRE=Country
TTITLE0=Speak A Little Louder
TTITLE1=Lighthouse
TTITLE2=All The Love You Got
TTITLE3=Tell Me Tomorrow
TTITLE4=Superstars
TTITLE5=Pretty In Pain
TTITLE6=Love And War
TTITLE7=Frozen Over
TTITLE8=Diamonds In The Dust
TTITLE9=UNFKD
TTITLE10=It Plays On
TTITLE11=Walk The Rainbow To The End
TTITLE12=Adelaide
TTITLE13=Staring At You
TTITLE14=Hold On A Little Longer
TTITLE15=Truer Than Blue
EXTD=
EXTT0=
EXTT1=
EXTT2=
EXTT3=
EXTT4=
EXTT5=
EXTT6=
EXTT7=
EXTT8=
EXTT9=
EXTT10=
EXTT11=
EXTT12=
EXTT13=
EXTT14=
EXTT15=
PLAYORDER=
